<svg width="20" height="20" viewBox="0 0 20 20" fill="none" xmlns="http://www.w3.org/2000/svg">
<g id="download ">
<path id="Vector" d="M11.1888 15.8438L12.2624 14.7619C12.2626 14.7617 12.2627 14.7616 12.2629 14.7614C12.326 14.6985 12.4114 14.6633 12.5005 14.6633C12.5898 14.6633 12.6755 14.6987 12.7386 14.7619L13.0922 14.4083L12.7386 14.7619C12.8018 14.825 12.8373 14.9107 12.8373 15C12.8373 15.0893 12.8018 15.175 12.7386 15.2381L10.2433 17.7334C10.2123 17.7624 10.176 17.7851 10.1364 17.8005L10.1256 17.8047L10.1151 17.8093C10.079 17.8253 10.04 17.8335 10.0005 17.8335C9.96107 17.8335 9.92206 17.8253 9.88597 17.8093L9.8754 17.8047L9.86461 17.8005C9.82501 17.7851 9.78873 17.7624 9.7577 17.7334L7.26241 15.2381C7.23114 15.2068 7.20633 15.1697 7.18941 15.1289C7.17249 15.088 7.16378 15.0442 7.16378 15C7.16378 14.9558 7.17249 14.912 7.18941 14.8711C7.20633 14.8303 7.23114 14.7932 7.26241 14.7619C7.29368 14.7306 7.3308 14.7058 7.37165 14.6889C7.41251 14.672 7.4563 14.6633 7.50052 14.6633C7.54474 14.6633 7.58853 14.672 7.62938 14.6889C7.67001 14.7057 7.70694 14.7303 7.7381 14.7613C7.73828 14.7615 7.73845 14.7617 7.73863 14.7619L8.81227 15.8438L9.66718 16.7054V15.4917V10.8333C9.66718 10.7449 9.7023 10.6601 9.76482 10.5976L9.41126 10.2441L9.76482 10.5976C9.82733 10.5351 9.91211 10.5 10.0005 10.5C10.0889 10.5 10.1737 10.5351 10.2362 10.5976C10.2987 10.6601 10.3339 10.7449 10.3339 10.8333V15.4917V16.7054L11.1888 15.8438ZM14.8921 5.38285L14.9844 5.59496L15.2058 5.66192C15.9698 5.89299 16.6376 6.36709 17.1077 7.01222C17.5778 7.65735 17.8246 8.43827 17.8105 9.23638C17.7964 10.0345 17.5222 10.8062 17.0296 11.4343C16.5374 12.062 15.8539 12.512 15.0829 12.7161C15.0407 12.7268 14.9968 12.7292 14.9537 12.7231C14.9101 12.717 14.8682 12.7023 14.8304 12.6799C14.7925 12.6576 14.7594 12.628 14.733 12.5929C14.7066 12.5578 14.6873 12.5178 14.6764 12.4752C14.6654 12.4326 14.6629 12.3883 14.6691 12.3448C14.6752 12.3013 14.6899 12.2594 14.7122 12.2215L14.2816 11.9674L14.7122 12.2215C14.7346 12.1837 14.7642 12.1506 14.7993 12.1242C14.8344 12.0977 14.8744 12.0785 14.917 12.0675L14.917 12.0676L14.925 12.0654C15.5785 11.8853 16.1518 11.4892 16.5513 10.9416C16.9509 10.394 17.1533 9.72728 17.1254 9.05C17.0976 8.37272 16.8412 7.72482 16.3981 7.21189C15.9549 6.69896 15.3511 6.35123 14.685 6.22536L14.685 6.22528L14.6766 6.22384C14.6171 6.21365 14.5615 6.18749 14.5157 6.14815C14.4699 6.10882 14.4357 6.05779 14.4166 6.00051L14.4166 6.0005L14.4152 5.99625C14.0574 4.95198 13.3409 4.06836 12.3932 3.50239C11.4454 2.93641 10.3278 2.72472 9.23869 2.90493C8.14962 3.08513 7.15969 3.64557 6.44477 4.48666C5.72985 5.32775 5.33624 6.39504 5.33385 7.49891V7.49999C5.33385 7.5884 5.29873 7.67318 5.23622 7.7357C5.17371 7.79821 5.08892 7.83333 5.00052 7.83333C4.42588 7.83333 3.87478 8.0616 3.46845 8.46793C3.06213 8.87426 2.83385 9.42536 2.83385 9.99999C2.83385 10.5746 3.06213 11.1257 3.46845 11.5321L3.82201 11.1785L3.46845 11.5321C3.87478 11.9384 4.42588 12.1667 5.00052 12.1667C5.08892 12.1667 5.17371 12.2018 5.23622 12.2643C5.29873 12.3268 5.33385 12.4116 5.33385 12.5C5.33385 12.5884 5.29873 12.6732 5.23622 12.7357C5.17371 12.7982 5.08892 12.8333 5.00052 12.8333L4.99947 12.8333C4.30504 12.8348 3.63425 12.5812 3.1145 12.1206C2.59474 11.6601 2.26221 11.0247 2.18006 10.3352C2.09791 9.64564 2.27185 8.94992 2.66886 8.38017C3.06587 7.81042 3.6583 7.40631 4.33363 7.24458L4.66856 7.16437L4.71301 6.82285C4.86355 5.66598 5.38926 4.59039 6.20958 3.76089C7.0299 2.93138 8.09958 2.39373 9.25469 2.23032C10.4098 2.06691 11.5866 2.28675 12.6049 2.85616C13.6231 3.42557 14.4265 4.31314 14.8921 5.38285Z" fill="white" stroke="white"/>
</g>
</svg>
