<svg width="460" height="260" viewBox="0 0 460 260" fill="none" xmlns="http://www.w3.org/2000/svg">
<path fill-rule="evenodd" clip-rule="evenodd" d="M353.988 199.852C342.064 196.504 330.56 192.586 318.481 188.049C328.146 165.346 339.01 143.968 352.382 123.075C348.948 122.796 346.871 124.103 344.747 125.089C332.777 130.644 320.097 133.223 307.011 133.373C293.896 133.523 281.189 131.006 269.163 125.557C256.831 119.969 245.152 113.217 234.802 104.493C226.644 97.617 219.562 89.621 213.6 80.704C212.692 79.346 211.669 78.064 210.327 76.243C208.261 77.8 206.394 79.055 204.7 80.51C193.206 90.379 180.416 98.03 166.062 102.926C155.799 106.427 145.317 108.909 134.421 109.601C110.301 111.133 86.602 108.937 63.361 102.181C62.901 102.047 62.394 102.076 61.306 101.97C59.603 119.194 60.358 136.42 58.659 153.409C62.568 155.263 65.873 154.22 69.115 154.097C70.436 154.046 71.742 153.659 73.065 153.577C84.354 152.883 95.637 151.984 106.938 151.608C125.073 151.004 143.218 150.722 161.361 150.375C166.69 150.273 172.037 150.188 177.354 150.481C193.794 151.388 210.295 151.85 226.642 153.667C245.975 155.815 265.201 159.109 283.413 166.472C292.412 170.109 300.731 174.98 308.17 181.259C309.511 182.392 310.649 183.767 311.987 185.138C310.289 187.122 308.594 186.546 307.035 186.308C290.444 183.775 273.91 180.773 257.254 178.787C242.082 176.978 226.797 175.928 211.53 175.154C194.429 174.285 177.293 173.773 160.172 173.734C148.715 173.707 137.252 174.689 125.8 175.375C115.841 175.973 105.869 176.543 95.949 177.57C83.879 178.82 71.83 180.349 59.824 182.109C48.806 183.722 37.828 185.65 26.888 187.73C19.377 189.16 11.963 191.095 4.499 192.777C3.723 192.951 2.903 192.933 2.303 192.986C0.405003 191.285 1.37 189.814 2.058 188.277C4.229 183.429 6.396 178.58 8.475 173.693C13.313 162.316 16.634 150.457 18.688 138.31C20.906 125.189 22.333 111.96 21.812 98.589C21.135 81.216 18.615 64.138 13.116 47.633C10.337 39.291 6.614 31.268 3.483 23.038C2.307 19.949 1.198 16.737 0.753 13.486C-0.448 4.709 6.565 0.222005 13.489 0.883005C20.567 1.55901 25.495 5.629 28.527 11.779C30.352 15.48 31.996 19.475 32.644 23.51C34.192 33.151 37.436 42.257 41.555 50.912C45.174 58.517 49.905 65.685 54.828 72.556C61.995 82.557 71.426 90.273 82.224 96.101C94.936 102.962 108.017 104.092 121.436 97.722C143.48 87.257 162.199 72.644 176.838 53.1C182.327 45.771 186.355 37.504 189.131 28.699C190.479 24.427 192.023 20.217 193.314 15.929C194.25 12.822 196.247 10.667 199.062 9.43C206.99 5.946 215.22 4.336 223.86 6.232C229.779 7.531 234.166 10.806 236.467 16.504C238.398 21.282 239.884 26.115 240.2 31.397C240.994 44.658 241.606 57.979 244.256 71.032C246.739 83.268 249.819 95.392 257.25 105.795C262.512 113.16 269.849 116.878 278.843 117.479C293.072 118.43 306.207 114.119 318.935 108.615C326.226 105.463 333.179 101.425 339.998 97.311C349.195 91.762 356.383 83.959 363.452 75.912C378.62 58.647 396.534 45.584 419.923 41.718C429.886 40.072 439.788 40.294 449.646 42.476C449.97 42.548 450.291 42.64 450.61 42.731C460.373 45.523 462.663 53.038 455.664 60.346C451.42 64.78 446.792 68.909 441.976 72.719C432.249 80.415 423.906 89.446 416.099 98.972C409.884 106.555 403.639 114.193 398.286 122.381C389.921 135.173 382.016 148.29 374.444 161.57C367.857 173.123 362.003 185.095 355.813 196.875C355.43 197.602 354.955 198.281 353.988 199.852Z" fill="#141416"/>
<path fill-rule="evenodd" clip-rule="evenodd" d="M265.476 238.215C268.802 236.285 270.206 233.141 270.866 229.424C271.411 226.344 271.97 223.184 275.102 221.637C277.828 222.037 278.215 223.895 277.798 225.758C277.262 228.154 276.242 230.442 275.456 232.785C274.921 234.379 274.429 235.988 273.917 237.59C274.275 237.867 274.634 238.147 274.992 238.424C276.408 237.473 278.016 236.715 279.201 235.533C281.551 233.191 283.812 230.728 285.847 228.111C289.611 223.269 294.285 220.724 300.537 221.396C302.352 221.591 304.214 221.384 306.026 221.599C307.584 221.785 309.101 222.312 310.626 222.685C312.041 228.783 307.2 233.126 307.601 239.312C311.358 236.46 314.756 233.88 318.1 231.341C320.195 233.321 318.994 234.683 318.007 235.595C314.963 238.409 311.905 241.271 308.523 243.642C304.665 246.347 303.541 246.029 299.779 242.853C299.283 242.435 298.726 242.087 298.114 241.648C294.218 242.943 290.718 245.982 285.453 243.908C284.678 242.787 283.474 241.047 282.042 238.976C279.508 240.509 276.864 242.107 274.21 243.714C272.467 242.921 270.981 242.247 269.381 241.521C266.3 242.857 263.406 245.236 258.566 243.853C258.172 243.261 257.254 241.88 256.251 240.369C251.305 243.144 246.685 247.51 241.618 240C239.641 244.703 237.949 248.73 236.145 253.021C234.268 253.021 232.559 253.021 230.907 253.021C228.518 248.777 232.819 245.917 232.329 241.638C231.107 242.052 229.972 242.345 228.911 242.81C223.299 245.265 221.42 244.777 217.832 239.601C213.868 240.408 211.038 245.371 206.055 243.583C204.734 242.63 203.413 241.677 202.174 240.782C190.388 245.243 189.749 245.141 185.676 237.971C183.93 239.178 182.247 240.463 180.443 241.545C179.177 242.303 177.797 243.051 176.375 243.332C173.285 243.945 170.966 242.297 170.916 239.154C170.874 236.556 171.194 233.791 172.092 231.375C174.057 226.082 176.491 220.965 178.841 215.527C178.027 214.246 177.176 212.908 176.118 211.242C178.033 210.4 179.655 209.687 181.596 208.832C183.122 205.9 184.775 202.725 186.488 199.432C192.616 201.354 188.6 205.69 189.425 208.668C190.937 209.457 192.467 210.256 193.99 211.051C192.559 213.926 192.559 213.926 187.159 214.94C184.152 218.809 179.53 231.018 179.366 236.198C183.418 233.913 186.9 231.311 189.125 227.823C192.935 221.85 198.152 219.843 204.83 220.36C206.654 220.503 208.495 220.389 210.322 220.501C214.203 220.741 215.658 222.874 214.428 226.538C213.636 228.899 212.678 231.202 211.895 233.565C211.555 234.59 211.471 235.702 211.058 237.915C215.197 235.47 217.951 233.085 220.208 230.083C221.407 228.489 222.437 226.749 223.765 225.274C227.246 221.415 231.557 219.778 236.791 220.676C240.322 221.283 243.887 221.696 248.288 222.313C249.482 221.317 251.604 219.926 254.098 222.624C255.639 227.655 250.115 231.772 251.311 237.181C256.514 236.318 258.369 231.132 262.992 229.667C263.806 230.245 264.693 230.874 265.675 231.571C265.181 233.764 264.731 235.76 264.28 237.757C264.678 237.91 265.076 238.063 265.476 238.215ZM302.179 226.057C293.744 226.862 288.161 233.412 289.951 240.317C295.107 240.233 297.398 235.944 300.347 232.887C301.914 231.264 303.766 229.141 302.179 226.057ZM206.555 225.865C201.782 224.447 198.755 227.013 196.407 229.885C194.486 232.235 192.458 235.115 193.819 238.721C200.041 237.279 205.156 232.182 206.555 225.865ZM225.321 239.186C231.256 238.094 233.65 233.672 236.672 230.106C237.477 229.157 237.618 227.645 238.145 226.167C234.649 225.071 232.543 226.355 230.841 228.185C228.105 231.123 224.96 233.949 225.321 239.186Z" fill="#141416"/>
<path fill-rule="evenodd" clip-rule="evenodd" d="M74.962 221.887C73.597 226.082 72.272 230.155 70.614 235.25C75.483 232.805 78.651 230.289 80.055 225.91C81.067 222.75 82.137 219.609 83.233 216.48C84.046 214.158 85.89 213.005 87.754 213.554C89.688 214.124 90.132 215.839 89.355 218.513C87.847 223.704 86.478 228.935 84.966 234.462C89.022 233.298 90.841 228.396 95.446 228.618C96.457 231.167 95.075 232.468 93.755 233.677C91.672 235.585 89.641 237.615 87.306 239.169C83.323 241.819 80.068 244.978 78.437 249.556C77.131 253.224 74.306 255.499 71.285 257.62C68.827 259.347 66.203 260.028 63.346 258.927C61.303 255.101 61.263 253.952 63.678 251.339C65.132 249.765 66.983 248.566 68.528 247.066C70.341 245.306 72.908 244.132 73.807 240.656C69.244 242.135 64.94 244.283 61.953 239.109C57.376 240.297 53.283 244.441 47.727 240.404C47.219 239.652 46.301 238.297 45.217 236.695C41.732 238.679 38.32 240.621 34.63 242.72C32.841 241.618 31.231 240.626 29.838 239.769C28.311 229.337 35.639 222.226 37.946 213.689C37.225 212.023 36.573 210.517 35.753 208.625C37.681 208.236 38.928 207.984 40.811 207.604C41.534 206.01 42.399 204.096 43.268 202.186C44.156 200.233 44.787 198.041 47.619 197.616C51.923 199.675 49.263 203.237 49.222 206.542C50.733 207.429 52.353 208.38 54.097 209.401C52.99 213.714 49.327 211.784 46.399 213.174C42.938 219.586 40.209 226.897 37.989 234.408C38.338 234.642 38.685 234.877 39.034 235.111C42.478 231.588 46.26 228.33 49.278 224.474C53.087 219.609 57.817 217.892 63.71 218.351C65.84 218.519 67.992 218.533 70.129 218.47C72.419 218.404 73.937 219.352 74.962 221.887ZM67.043 224.053C61.979 222.52 58.927 224.916 56.435 227.719C54.294 230.127 51.55 232.746 53.42 237.076C59.964 234.945 63.088 229.693 67.043 224.053Z" fill="#141416"/>
<path fill-rule="evenodd" clip-rule="evenodd" d="M137.748 222.477C137.193 224.502 136.629 226.75 135.955 228.963C135.307 231.092 134.544 233.186 134.338 235.596C138.279 233.815 141.362 231.53 142.972 227.399C146.466 218.438 149.634 209.317 154.7 201.051C155.743 199.35 156.785 197.629 158.019 196.071C160.439 193.012 163.575 191.848 165.76 193.001C168.027 194.198 168.975 197.37 167.155 201.058C164.743 205.949 161.76 210.576 158.782 215.162C155.634 220.008 151.115 223.967 149.406 229.738C148.916 231.396 148.487 233.07 147.956 235.006C152.58 234.555 153.615 228.295 158.585 229.934C157.852 235.059 150.378 241.475 142.925 243.313C141.48 242.532 139.757 241.6 138.019 240.661C135.815 241.509 133.652 242.343 130.827 243.429C129.058 242.468 126.96 241.325 124.013 239.722C120.353 240.827 115.99 245.691 110.581 240.859C106.267 234.724 111.281 225.795 115.887 222.15C121.05 218.066 127.015 219.673 132.745 219.47C134.724 219.396 136.375 219.836 137.748 222.477ZM129.08 225.014C124.647 223.66 122.004 225.702 119.808 228.19C117.451 230.862 115.094 233.76 116.716 238.46C122.31 235.256 127.357 232.191 129.08 225.014Z" fill="#141416"/>
</svg>
