<svg width="16" height="16" viewBox="0 0 16 16" fill="none" xmlns="http://www.w3.org/2000/svg">
<g id="Research ">
<path id="Vector" d="M13.6887 11.5689L13.6888 11.5688L12.3157 10.1626C12.0922 9.95244 11.8113 9.81317 11.5086 9.76242C11.2031 9.71119 10.8892 9.75251 10.6073 9.88107L10.2916 10.025L10.0463 9.77969L9.44628 9.17969L9.13996 8.87337L9.39953 8.52655C10.0308 7.68305 10.3191 6.63171 10.2064 5.58419C10.0937 4.53666 9.58832 3.57073 8.79204 2.88083C7.99577 2.19094 6.9677 1.82831 5.9148 1.86594C4.8619 1.90358 3.86235 2.33868 3.11736 3.08367C2.37238 3.82866 1.93727 4.82821 1.89963 5.88111C1.862 6.93401 2.22463 7.96207 2.91452 8.75835C3.60442 9.55463 4.57036 10.06 5.61788 10.1727C6.6654 10.2854 7.71674 9.99712 8.56024 9.36583L8.90706 9.10627L9.21338 9.41259L9.80672 10.0059L10.0635 10.2627L9.89874 10.5863C9.75629 10.8661 9.70523 11.1836 9.75278 11.494C9.8002 11.8035 9.94332 12.0905 10.162 12.3146L11.5732 13.7257L13.6887 11.5689ZM13.6887 11.5689L13.6969 11.577M13.6887 11.5689L13.6969 11.577M13.6969 11.577C13.8398 11.7167 13.9533 11.8835 14.0308 12.0677C14.1083 12.2519 14.1482 12.4497 14.1482 12.6495C14.1482 12.8493 14.1083 13.0471 14.0308 13.2313C13.9533 13.4154 13.8398 13.5823 13.6969 13.722L13.6969 13.722M13.6969 11.577L13.6969 13.722M13.6969 13.722L13.6932 13.7257M13.6969 13.722L13.6932 13.7257M13.6932 13.7257C13.4119 14.0066 13.0307 14.1644 12.6332 14.1644C12.2358 14.1644 11.8546 14.0067 11.5734 13.7259L13.6932 13.7257ZM13.4601 13.4597C13.3519 13.5684 13.2234 13.6546 13.0818 13.7136C12.9397 13.7728 12.7872 13.8033 12.6332 13.8033C12.4791 13.8033 12.3267 13.7728 12.1845 13.7136C12.0427 13.6545 11.9139 13.568 11.8056 13.459C11.8054 13.4588 11.8051 13.4585 11.8048 13.4582L10.3944 12.0478C10.3941 12.0475 10.3939 12.0473 10.3936 12.047C10.2846 11.9387 10.1981 11.81 10.139 11.6681C10.0798 11.526 10.0493 11.3735 10.0493 11.2195C10.0493 11.0655 10.0798 10.913 10.139 10.7708L13.4601 13.4597ZM13.4601 13.4597C13.5687 13.3515 13.655 13.223 13.714 13.0815C13.7732 12.9393 13.8037 12.7868 13.8037 12.6328C13.8037 12.4788 13.7732 12.3263 13.714 12.1841C13.6549 12.0423 13.5684 11.9136 13.4594 11.8053C13.4591 11.805 13.4589 11.8047 13.4586 11.8045L12.0482 10.394C12.0479 10.3938 12.0476 10.3935 12.0474 10.3932C11.9391 10.2843 11.8103 10.1978 11.6685 10.1387C11.5263 10.0794 11.3738 10.0489 11.2198 10.0489C11.0658 10.0489 10.9133 10.0794 10.7712 10.1387C10.6296 10.1976 10.5011 10.2839 10.3929 10.3926C10.2843 10.5007 10.198 10.6293 10.139 10.7708L13.4601 13.4597ZM6.7834 9.79319C7.52673 9.64607 8.20978 9.28194 8.74627 8.74681C9.10326 8.39072 9.38648 7.96771 9.57973 7.502C9.77298 7.03629 9.87246 6.53702 9.87246 6.03281C9.87246 5.52859 9.77298 5.02933 9.57973 4.56362C9.38648 4.0979 9.10326 3.67489 8.74627 3.31881C8.20978 2.78367 7.52673 2.41955 6.7834 2.27242C6.04008 2.1253 5.26982 2.20178 4.56993 2.4922C3.87005 2.78262 3.27193 3.27395 2.85115 3.90413C2.43037 4.53431 2.20579 5.27506 2.20579 6.03281C2.20579 6.79056 2.43037 7.53131 2.85115 8.16148C3.27193 8.79166 3.87005 9.283 4.56993 9.57342C5.26982 9.86384 6.04008 9.94032 6.7834 9.79319Z" fill="#646471" stroke="#646471"/>
</g>
</svg>
